<svg width="346" height="411" viewBox="0 0 346 411" fill="none" xmlns="http://www.w3.org/2000/svg">
<rect x="62.9321" y="254.991" width="360" height="39" rx="4" transform="rotate(-45 62.9321 254.991)" fill="#FF1515"/>
<path d="M45.7606 367.819C44.1985 366.257 44.1985 363.724 45.7606 362.162L294.662 113.261C296.224 111.698 298.757 111.698 300.319 113.261L309.669 122.611C311.231 124.173 311.231 126.705 309.669 128.267L60.7674 377.169C59.2053 378.731 56.6726 378.731 55.1105 377.169L45.7606 367.819Z" fill="#FF1515"/>
<path d="M44.3463 406.405C43.5653 405.624 43.5653 404.357 44.3463 403.576L211.224 236.699C212.005 235.918 213.271 235.918 214.052 236.699L216.57 239.217C217.351 239.998 217.351 241.265 216.57 242.046L49.693 408.923C48.9119 409.704 47.6456 409.704 46.8646 408.923L44.3463 406.405Z" fill="#FF1515"/>
<path d="M2.34634 406.405C1.56529 405.624 1.56529 404.357 2.34634 403.576L27.8022 378.121C28.5832 377.339 29.8496 377.339 30.6306 378.121L33.1488 380.639C33.9299 381.42 33.9299 382.686 33.1488 383.467L7.69298 408.923C6.91194 409.704 5.64561 409.704 4.86456 408.923L2.34634 406.405Z" fill="#FF1515"/>
<path d="M272.414 115.698C271.633 114.917 271.633 113.651 272.414 112.87L297.87 87.4142C298.651 86.6331 299.917 86.6331 300.698 87.4142L303.217 89.9324C303.998 90.7134 303.998 91.9798 303.217 92.7608L277.761 118.217C276.98 118.998 275.713 118.998 274.932 118.217L272.414 115.698Z" fill="#FF1515"/>
<path d="M134.346 336.405C133.565 335.624 133.565 334.357 134.346 333.576L301.224 166.699C302.005 165.918 303.271 165.918 304.052 166.699L306.57 169.217C307.351 169.998 307.351 171.265 306.57 172.046L139.693 338.923C138.912 339.704 137.646 339.704 136.865 338.923L134.346 336.405Z" fill="#FF4545"/>
</svg>
